<svg width="288" height="60" viewBox="0 0 288 60" fill="none" xmlns="http://www.w3.org/2000/svg">
<path d="M0 16.2256H8.95215V22.163H9.20281C9.89996 21.1503 10.672 20.1907 11.5125 19.2924C12.3238 18.419 13.2587 17.6681 14.2876 17.0636C15.4077 16.418 16.613 15.9319 17.8685 15.6193C19.3543 15.2436 20.8833 15.0637 22.4162 15.0844C24.9432 15.08 27.4329 15.6922 29.6674 16.8674C31.871 17.9944 33.5703 19.903 34.43 22.2165C35.9051 20.1342 37.7868 18.3695 39.9624 17.0279C42.3583 15.6909 45.0778 15.037 47.8224 15.1379C51.6325 14.8952 55.3972 16.0708 58.3859 18.4365C60.8925 20.6237 62.1458 24.3027 62.1458 29.4735V58.8934H52.6924V33.931C52.6924 32.2312 52.6387 30.68 52.5312 29.2773C52.4505 28.0386 52.1282 26.8273 51.5823 25.7113C51.038 24.6711 50.1716 23.8332 49.1115 23.322C47.7649 22.7126 46.2919 22.4314 44.8145 22.5018C43.4984 22.3843 42.1736 22.5931 40.9583 23.1095C39.743 23.626 38.6751 24.4341 37.8497 25.4616C36.2727 27.9764 35.5217 30.9181 35.7012 33.8775V58.8399H26.3193V31.4883C26.48 29.1367 25.9179 26.792 24.7079 24.7663C23.6337 23.2507 21.6642 22.5018 18.7995 22.5018C17.5681 22.4976 16.3491 22.7465 15.2187 23.2329C14.0832 23.73 13.0693 24.466 12.2465 25.3903C11.3557 26.4035 10.6688 27.5779 10.2234 28.8494C9.67933 30.3525 9.41245 31.9412 9.43557 33.5388V58.8399H0V16.2256Z" fill="white"/>
<path d="M101.231 49.372C101.166 50.2169 101.32 51.0643 101.679 51.8326C101.882 52.1064 102.155 52.3206 102.47 52.4524C102.785 52.5842 103.131 52.6288 103.469 52.5815H104.472C104.918 52.5737 105.362 52.5199 105.797 52.421V58.9291L104.507 59.3035L102.896 59.678C102.341 59.7849 101.786 59.8563 101.249 59.9097C100.712 59.9632 100.21 59.9097 99.8344 59.9097C98.1584 59.9705 96.498 59.5695 95.0361 58.7508C94.3576 58.2937 93.7847 57.6979 93.3556 57.0031C92.9264 56.3083 92.6509 55.5303 92.5474 54.7211C90.5924 56.5688 88.2232 57.9258 85.6363 58.6795C83.0792 59.473 80.4188 59.8875 77.7405 59.9097C75.8623 59.9131 73.9933 59.6489 72.1902 59.1252C70.5043 58.6496 68.9204 57.87 67.5172 56.8251C66.1511 55.7996 65.047 54.4679 64.2944 52.9381C63.4592 51.2358 63.0477 49.3583 63.0948 47.4642C63.0039 45.2313 63.4975 43.0131 64.5271 41.0275C65.4481 39.4364 66.7605 38.1049 68.3407 37.1583C70.0071 36.1959 71.8222 35.515 73.712 35.1435C75.6636 34.7334 77.651 34.4124 79.6205 34.1985C81.2352 33.8744 82.8671 33.6423 84.5083 33.5031C85.8942 33.3917 87.2667 33.1529 88.6084 32.7899C89.6618 32.5367 90.6307 32.0143 91.4194 31.2743C91.7916 30.8524 92.0753 30.3605 92.2537 29.8276C92.432 29.2948 92.5014 28.7318 92.4579 28.1718C92.4631 27.1294 92.1233 26.1142 91.491 25.2833C90.9337 24.5214 90.1956 23.9088 89.3425 23.5003C88.4462 23.0673 87.4844 22.7842 86.4957 22.6623C85.5038 22.5383 84.5054 22.4728 83.5057 22.4661C81.2145 22.3778 78.946 22.9472 76.9706 24.1065C76.117 24.6722 75.4095 25.4304 74.9055 26.3196C74.4015 27.2087 74.1153 28.2038 74.0701 29.2238H64.6346C64.7138 26.8123 65.3969 24.4587 66.6219 22.377C67.7442 20.5995 69.2638 19.1045 71.0622 18.0086C72.9291 16.8827 74.9856 16.1034 77.1318 15.7085C79.4262 15.2627 81.7589 15.0417 84.0965 15.0487C86.1794 15.0448 88.2565 15.2661 90.2914 15.7085C92.2399 16.0991 94.1057 16.8231 95.806 17.8481C97.4043 18.8077 98.7488 20.1344 99.727 21.7173C100.772 23.441 101.294 25.4285 101.231 27.4408V49.372ZM91.7954 37.4971C90.1744 38.4981 88.3282 39.0803 86.4241 39.191C84.3293 39.3871 82.2345 39.6724 80.1218 40.0468C79.1458 40.2192 78.1827 40.4575 77.2392 40.76C76.349 41.0353 75.5089 41.4506 74.7505 41.9903C73.984 42.5139 73.3671 43.2265 72.9601 44.0586C72.5246 45.0275 72.3164 46.0824 72.3513 47.1433C72.3172 48.1021 72.6355 49.0404 73.2465 49.7821C73.8567 50.4907 74.6062 51.0672 75.4488 51.476C76.3388 51.8963 77.2858 52.1847 78.2597 52.3319C79.177 52.486 80.1048 52.5694 81.0349 52.5815C82.1745 52.5676 83.3092 52.4301 84.4188 52.1714C85.6337 51.8901 86.7946 51.4144 87.8565 50.7628C88.9171 50.1194 89.8317 49.2632 90.5421 48.2487C91.2984 47.1488 91.6811 45.8366 91.6343 44.5044L91.7954 37.4971Z" fill="white"/>
<path d="M106.692 0H116.127V33.4674L133.262 16.2256H144.846L128.463 31.8984L146.368 58.8399H134.855L121.785 38.1568L116.163 43.595V58.8399H106.692V0Z" fill="white"/>
<path d="M147.818 0H157.254V33.4674L174.298 16.2256H185.883L169.5 31.8984L187.404 58.8399H175.91L162.822 38.1568L157.2 43.595V58.8399H147.764L147.818 0Z" fill="white"/>
<path d="M191.093 39.9755C191.095 41.5947 191.336 43.2048 191.809 44.754C192.235 46.2246 192.954 47.5949 193.922 48.7837C194.885 49.9677 196.111 50.9136 197.503 51.5474C199.114 52.2768 200.872 52.6305 202.641 52.5815C204.993 52.6883 207.32 52.0653 209.301 50.7985C211.094 49.4586 212.411 47.585 213.061 45.4494H222.014C221.554 47.6555 220.679 49.7549 219.435 51.6365C218.264 53.4162 216.778 54.969 215.049 56.2189C213.305 57.4674 211.362 58.4138 209.301 59.0182C207.138 59.6499 204.895 59.9681 202.641 59.9633C199.577 60.02 196.532 59.4621 193.689 58.3229C191.183 57.3169 188.928 55.7772 187.082 53.8118C185.247 51.743 183.868 49.3131 183.036 46.6797C182.069 43.7453 181.585 40.6745 181.603 37.5863C181.587 34.6539 182.077 31.7407 183.054 28.9742C183.973 26.3606 185.376 23.9415 187.19 21.8421C189 19.7865 191.212 18.1183 193.689 16.9388C196.39 15.713 199.333 15.1039 202.301 15.1558C205.449 15.1007 208.562 15.8236 211.36 17.2597C213.974 18.5898 216.251 20.4916 218.021 22.8228C219.829 25.1423 221.156 27.7971 221.924 30.6324C222.735 33.6533 222.948 36.8024 222.551 39.9042L191.093 39.9755ZM213.115 33.7884C213.008 32.3238 212.688 30.8824 212.166 29.5091C211.678 28.198 210.95 26.9887 210.018 25.9431C209.072 24.9198 207.934 24.0901 206.67 23.5003C205.31 22.8616 203.822 22.5385 202.319 22.5553C200.772 22.5359 199.238 22.827 197.807 23.4112C196.5 23.9672 195.318 24.7798 194.333 25.8004C193.351 26.8384 192.568 28.0471 192.024 29.3665C191.429 30.7806 191.102 32.2917 191.057 33.8241L213.115 33.7884Z" fill="white"/>
<path d="M224.789 16.2256H233.633V24.481H233.812C234.114 23.2549 234.662 22.1025 235.424 21.0933C236.253 19.9869 237.229 18.9973 238.324 18.1513C239.465 17.249 240.732 16.5163 242.084 15.976C243.426 15.4324 244.861 15.1538 246.31 15.1558C247.067 15.1165 247.826 15.1165 248.583 15.1558L249.855 15.3341V24.3919L247.849 24.1066C247.178 24.0212 246.503 23.9795 245.826 23.9818C244.272 23.9767 242.735 24.2987 241.314 24.9268C239.892 25.5763 238.632 26.5325 237.626 27.7261C236.523 29.0869 235.685 30.6411 235.155 32.3085C234.516 34.3323 234.207 36.4455 234.242 38.5669V58.84H224.807L224.789 16.2256Z" fill="white"/>
<path d="M259.38 45.1641C259.401 46.3082 259.699 47.4303 260.247 48.4358C260.795 49.4412 261.579 50.3006 262.531 50.9411C264.516 52.077 266.777 52.6447 269.066 52.5815C270.078 52.5721 271.089 52.5006 272.092 52.3675C273.177 52.2474 274.242 51.9897 275.261 51.6009C276.204 51.2425 277.046 50.6612 277.714 49.907C278.35 49.0273 278.652 47.9517 278.566 46.8712C278.481 45.7906 278.014 44.7752 277.248 44.0052C276.32 43.1988 275.235 42.5918 274.061 42.2221C272.618 41.7187 271.14 41.3195 269.639 41.0275C267.992 40.7066 266.309 40.3499 264.59 39.9577C262.871 39.585 261.174 39.1207 259.505 38.5669C257.94 38.0453 256.461 37.2941 255.118 36.3381C253.824 35.4033 252.763 34.1828 252.021 32.7721C251.2 31.1107 250.8 29.274 250.857 27.423C250.779 25.3534 251.376 23.3142 252.558 21.6103C253.687 20.0402 255.156 18.7424 256.855 17.8125C258.665 16.8298 260.625 16.1492 262.656 15.7976C264.659 15.4305 266.69 15.2396 268.726 15.2271C270.858 15.2184 272.985 15.4517 275.064 15.9225C277 16.3621 278.847 17.1279 280.525 18.1869C282.156 19.2441 283.542 20.6362 284.589 22.27C285.715 24.1125 286.407 26.1852 286.612 28.3323H276.765C276.659 27.3807 276.319 26.4698 275.776 25.6799C275.232 24.89 274.502 24.2456 273.649 23.8034C271.9 22.9994 269.99 22.603 268.063 22.6445C267.279 22.6523 266.496 22.7059 265.718 22.8049C264.836 22.9073 263.97 23.1169 263.14 23.429C262.373 23.7099 261.681 24.1612 261.116 24.7484C260.835 25.0522 260.616 25.409 260.475 25.7978C260.334 26.1867 260.272 26.5998 260.293 27.0129C260.273 27.5387 260.37 28.0624 260.578 28.5464C260.785 29.0304 261.097 29.4627 261.492 29.8122C262.411 30.6037 263.475 31.2093 264.626 31.5953C266.071 32.1128 267.556 32.5123 269.066 32.7899L274.187 33.8597C275.977 34.252 277.588 34.7156 279.236 35.2683C280.807 35.7299 282.298 36.4273 283.658 37.3366C285.061 38.3284 286.192 39.6539 286.948 41.1923C287.705 42.7307 288.064 44.4332 287.991 46.1448C288.05 48.4199 287.426 50.6609 286.2 52.5815C285.058 54.3435 283.511 55.8102 281.688 56.8608C279.783 57.9922 277.701 58.7997 275.529 59.25C273.332 59.7426 271.086 59.9937 268.833 59.9989C266.304 60.0207 263.782 59.715 261.331 59.0896C259.185 58.557 257.16 57.6188 255.369 56.3259C253.708 55.118 252.358 53.5354 251.43 51.7078C250.412 49.6757 249.885 47.435 249.89 45.1641H259.38Z" fill="white"/>
</svg>
